<svg width="131" height="34" viewBox="0 0 131 34" xmlns="http://www.w3.org/2000/svg">
<path d="M23.8437 19.2513C24.2089 19.2513 24.3916 19.719 24.3916 20.6544C24.3513 21.3198 24.1379 21.9631 23.7727 22.5202C23.3277 23.2647 22.7678 23.9339 22.1138 24.5028C21.4332 25.1031 20.6694 25.6014 19.8461 25.9822C19.0865 26.3515 18.2552 26.5493 17.411 26.5617C16.3356 26.5617 15.6151 25.6162 15.2499 23.725C14.7239 24.5864 14.0091 25.3166 13.1598 25.8602C12.1241 26.4676 10.934 26.7591 9.73549 26.699C9.09793 26.7265 8.46161 26.621 7.8669 26.389C7.27219 26.1571 6.73205 25.8039 6.28073 25.3518C5.85771 24.9275 5.52601 24.4207 5.30613 23.8628C5.08624 23.305 4.98284 22.7078 5.00232 22.1083C5.00232 18.6514 6.14883 15.9265 8.44186 13.9337C9.23213 13.2092 10.1581 12.6494 11.1661 12.2865C12.0285 12.0192 12.9267 11.8855 13.8295 11.89C14.621 11.8643 15.4061 12.0392 16.1123 12.3984C16.3964 11.8087 16.7211 11.5138 17.0864 11.5138C17.4692 11.5264 17.8458 11.6152 18.1941 11.7749C18.5425 11.9346 18.8557 12.1621 19.1156 12.4441C19.6483 12.8697 19.9912 13.4893 20.0693 14.1675C19.704 14.9961 19.2872 15.8009 18.8214 16.5772C18.6339 17.8801 18.5525 19.196 18.5778 20.5121C18.5778 22.2067 18.7909 23.054 19.2171 23.054C19.7446 23.054 21.023 21.9965 23.0523 19.8816C23.4175 19.4614 23.6814 19.2513 23.8437 19.2513ZM9.47677 21.1018C9.47677 22.6676 10.0551 23.4505 11.2118 23.4505C12.4496 23.4302 13.4743 22.7693 14.2861 21.4678C14.5981 20.9558 14.8339 20.4009 14.9861 19.8207C14.9527 17.851 15.1571 15.8846 15.5949 13.9642C13.9517 14.2893 12.4511 15.1212 11.3031 16.3434C10.6975 16.9745 10.224 17.7206 9.91041 18.5378C9.59678 19.355 9.44934 20.2267 9.47677 21.1018Z" fill="white"/>
<path d="M37.266 17.218C37.266 16.5401 36.8804 16.2012 36.1093 16.2012C35.5817 16.2012 34.9933 16.7096 34.3439 17.7264C33.6979 18.7445 33.2248 19.8628 32.9437 21.0359V21.0969C32.9487 21.8202 33.0563 22.5392 33.2633 23.2321C33.4299 23.7259 33.5372 24.2379 33.5829 24.7572C33.5829 25.435 32.7205 26.1129 30.9956 26.7907C30.7734 26.8834 30.5362 26.9351 30.2956 26.9432C30.0568 26.9496 29.8229 26.8747 29.6321 26.7307C29.4414 26.5866 29.3051 26.382 29.2455 26.1502C29.0282 25.455 28.9304 24.7278 28.9563 23.9997C28.9563 23.0948 28.9817 22.2475 29.0324 21.4579C29.0831 20.6681 29.1339 19.9259 29.1846 19.2312C29.2353 18.5533 29.286 17.9534 29.3368 17.4315C29.3875 16.9096 29.4129 16.4876 29.4129 16.1656C29.4129 15.4878 29.0984 15.1489 28.4693 15.1489C27.8402 15.1489 27.1097 15.886 26.2777 17.3603C25.4457 18.8347 25.0297 20.0039 25.0297 20.8681C25.0222 21.6774 25.1299 22.4837 25.3493 23.2626C25.5159 23.7564 25.6232 24.2684 25.6689 24.7877C25.6689 25.4655 24.8065 26.1433 23.0817 26.8212C22.8594 26.9139 22.6222 26.9656 22.3816 26.9737C22.143 26.9793 21.9096 26.904 21.719 26.76C21.5285 26.6161 21.3919 26.412 21.3315 26.1807C21.1041 25.3883 21.0064 24.5642 21.0423 23.7404C20.9937 21.6506 21.1056 19.5601 21.3771 17.4874C21.6899 15.574 22.3946 13.7461 23.4469 12.119C23.5574 11.8882 23.724 11.6891 23.9315 11.5398C24.139 11.3906 24.3806 11.296 24.634 11.2649C25.3104 11.2649 25.9294 11.8139 26.4908 12.912C26.6378 13.164 26.7601 13.4295 26.856 13.7051C27.2456 13.1508 27.76 12.6962 28.3576 12.3782C28.9552 12.0602 29.6191 11.8878 30.2956 11.8749C31.1562 11.8706 31.989 12.1795 32.6393 12.7443C32.9635 13.006 33.2235 13.3386 33.3994 13.7167C33.5752 14.0947 33.6623 14.5082 33.654 14.9252V15.2607C34.1748 14.5442 34.8569 13.9609 35.645 13.5581C36.433 13.1553 37.3047 12.9444 38.1893 12.9425C38.6412 12.9102 39.0949 12.9691 39.5237 13.1158C39.9524 13.2626 40.3474 13.494 40.6852 13.7966C40.9631 14.0706 41.182 14.3986 41.3286 14.7606C41.4752 15.1226 41.5463 15.5108 41.5375 15.9013C41.544 16.6576 41.4828 17.413 41.3549 18.1585C41.2331 18.8363 41.0961 19.4667 40.944 20.0496C40.7917 20.6326 40.6548 21.1562 40.533 21.6205C40.4292 21.9677 40.3679 22.3261 40.3504 22.6881C40.3504 22.9423 40.4316 23.0694 40.5939 23.0694C41.024 23.01 41.4213 22.8056 41.7201 22.4899C42.1666 22.1035 42.613 21.6815 43.0594 21.224L44.2921 19.9581C44.6811 19.5616 44.9432 19.3633 45.0785 19.3633C45.3626 19.3633 45.5046 19.7023 45.5046 20.3801C45.5046 21.8036 44.7893 23.1863 43.3588 24.5285C42.16 25.7774 40.5214 26.5072 38.793 26.5619C37.3319 26.5619 36.6014 25.23 36.6014 22.5661C36.6313 21.6328 36.7434 20.7039 36.9362 19.7903C37.117 18.9436 37.2273 18.0831 37.266 17.218Z" fill="white"/>
<path d="M54.0087 23.8776C53.3253 24.7583 52.4508 25.4715 51.4513 25.963C50.4519 26.4545 49.3539 26.7115 48.2406 26.7143C45.9983 26.7143 44.3191 26.1399 43.2031 24.9909C42.6522 24.4265 42.2223 23.7552 41.9397 23.0182C41.657 22.2813 41.5276 21.4942 41.5594 20.7053C41.495 18.4052 42.3119 16.1677 43.8423 14.4523C44.5946 13.5923 45.5285 12.9108 46.5761 12.4571C47.6237 12.0034 48.7589 11.7889 49.8995 11.8291C50.8315 11.795 51.7614 11.94 52.6389 12.2561C53.8362 12.7442 54.4348 13.2017 54.4348 13.6287C54.4348 13.9677 53.5978 14.1371 51.9237 14.1371C51.142 14.1229 50.3657 14.2699 49.6431 14.569C48.9205 14.8681 48.267 15.3129 47.7232 15.8758C47.1638 16.4488 46.7259 17.1293 46.4356 17.8762C46.1453 18.6231 46.0086 19.4212 46.0338 20.2224C46.0077 21.0639 46.2952 21.8849 46.8405 22.5253C47.1299 22.8422 47.4867 23.0899 47.8844 23.2501C48.2822 23.4102 48.7108 23.4787 49.1385 23.4506C49.9963 23.4821 50.8455 23.2707 51.5888 22.8405C50.8917 22.3833 50.3256 21.7516 49.9467 21.0081C49.5676 20.2645 49.3887 19.4347 49.4277 18.6007C49.4139 17.6072 49.7911 16.6483 50.4778 15.9317C50.8236 15.5392 51.2505 15.2267 51.7287 15.016C52.207 14.8054 52.7253 14.7015 53.2478 14.7116C54.3739 14.7116 55.1806 15.0217 55.6676 15.6419C56.1776 16.3443 56.435 17.1991 56.3981 18.0669C56.3778 19.1457 56.1396 20.2093 55.698 21.1934H55.8806C56.7357 21.1865 57.5567 20.8561 58.1788 20.2681C58.4222 20.0241 58.6303 19.8106 58.8028 19.6276C58.8647 19.5502 58.9415 19.486 59.0286 19.4389C59.1157 19.3917 59.2114 19.3625 59.3101 19.3531C59.5942 19.3531 59.7362 19.692 59.7362 20.3698C59.7748 20.8876 59.6963 21.4076 59.5066 21.8908C59.3168 22.374 59.0208 22.8082 58.6404 23.1608C57.975 23.7408 57.1228 24.0604 56.2409 24.0606C55.4926 24.0718 54.7452 24.0105 54.0087 23.8776ZM53.7348 20.319C54.06 19.6538 54.2333 18.9244 54.2421 18.1838C54.2421 17.506 54.0189 17.167 53.5724 17.167C53.3898 17.167 53.2376 17.2992 53.1158 17.5636C53.0004 17.8014 52.9381 18.0617 52.9332 18.3261C52.9223 18.6988 52.9878 19.0698 53.1257 19.4161C53.2635 19.7623 53.4708 20.0766 53.7348 20.3393V20.319Z" fill="white"/>
<path d="M122.956 26.7093C124.637 26.7093 126 25.3436 126 23.659C126 21.9744 124.637 20.6088 122.956 20.6088C121.275 20.6088 119.912 21.9744 119.912 23.659C119.912 25.3436 121.275 26.7093 122.956 26.7093Z" fill="#CCE8FA"/>
<path d="M91.559 19.8105C91.8973 19.8105 92.0664 20.2782 92.0664 21.2135C92.0166 21.8738 91.7963 22.5098 91.4271 23.059C90.9823 23.8036 90.4224 24.4728 89.7682 25.0416C89.0881 25.6427 88.3242 26.141 87.5006 26.521C86.7702 26.8814 85.9707 27.0791 85.1568 27.1006C84.5393 27.135 83.9253 26.9864 83.3914 26.6735C82.9566 26.3842 82.6064 25.9842 82.3768 25.5144C82.0386 24.8366 81.7545 23.5199 81.5245 21.5644C81.3987 20.1944 81.1749 18.8352 80.8549 17.4973C80.3491 17.4058 79.8734 17.1911 79.47 16.872C79.282 16.7387 79.129 16.5618 79.0239 16.3565C78.9188 16.1511 78.8647 15.9234 78.8662 15.6926C78.85 15.4788 78.9016 15.2654 79.0137 15.0828C79.1257 14.9002 79.2926 14.7577 79.4902 14.6758C79.9375 14.4659 80.427 14.3616 80.9208 14.3708C81.4305 14.3633 81.9318 14.5008 82.3666 14.7673C82.9247 14.3196 83.3944 13.7713 83.7516 13.1507C84.1342 12.3425 84.3086 11.4511 84.2589 10.558C84.2797 10.0692 84.1921 9.58184 84.0027 9.13093C83.8132 8.68003 83.5265 8.27674 83.1631 7.95002C82.4631 7.29591 81.4011 6.96885 79.9772 6.96885C78.8865 6.93242 77.7959 7.0453 76.7356 7.30438C76.0723 7.49471 75.4258 7.73955 74.8027 8.03644C74.265 8.30079 73.7881 8.54482 73.3721 8.76851C73.0152 8.97586 72.6126 9.09116 72.2002 9.10403C71.835 9.10403 71.6523 8.9871 71.6523 8.75325C71.7413 8.32761 71.9408 7.93304 72.2307 7.60941C72.7108 6.99588 73.2864 6.46376 73.9352 6.03344C75.8035 4.71325 78.0415 4.02086 80.3273 4.05585C82.3702 3.98621 84.3956 4.45421 86.2019 5.41322C87.0533 5.87199 87.7588 6.56144 88.2378 7.40285C88.7168 8.24426 88.9501 9.20371 88.9109 10.1716C88.9868 11.7426 88.5011 13.2892 87.5412 14.5335C86.637 15.6721 85.436 16.5378 84.0712 17.0347C84.3847 17.7325 84.6343 18.4574 84.8169 19.2004C85.0097 19.9731 85.1974 20.6849 85.38 21.3356C85.5271 21.8961 85.7364 22.4384 86.004 22.9522C86.0729 23.1277 86.1891 23.2805 86.3395 23.3936C86.49 23.5068 86.669 23.5757 86.8563 23.5928C87.317 23.5362 87.7456 23.3268 88.0739 22.998C88.5507 22.6015 89.0225 22.1693 89.4892 21.7016C89.956 21.2339 90.3719 20.8018 90.7372 20.4053C91.1228 20.0087 91.3967 19.8105 91.559 19.8105ZM78.3183 8.8295C78.5821 8.8295 78.714 9.16843 78.714 9.84626C78.7163 10.499 78.6756 11.1511 78.5923 11.7984C78.424 12.9094 78.1902 14.0094 77.8922 15.0927C77.1617 17.8583 76.7964 19.4749 76.7964 19.9426V24.4265C76.8399 24.885 76.744 25.346 76.5213 25.7488C76.2985 26.1517 75.9594 26.4776 75.5485 26.6837L74.4375 27.192C74.059 27.3597 73.6488 27.443 73.2351 27.4361C72.3829 27.4361 71.9567 26.4549 71.9567 24.4926C72.0562 21.9639 72.5175 19.4626 73.3264 17.0652C73.9835 14.674 74.9452 12.3776 76.1877 10.2326C76.4363 9.87761 76.7334 9.55931 77.0704 9.28705C77.418 8.98916 77.861 8.82673 78.3183 8.8295Z" fill="#CCE8FA"/>
<path d="M117.767 19.8106C118.105 19.8106 118.275 20.2783 118.275 21.2138C118.222 21.8749 117.998 22.511 117.625 23.0591C117.181 23.804 116.621 24.4732 115.966 25.0418C115.286 25.6425 114.522 26.1408 113.699 26.5212C112.874 26.9062 111.975 27.1041 111.066 27.1007C110.661 27.1225 110.257 27.053 109.883 26.8972C109.509 26.7416 109.175 26.5035 108.905 26.2009C108.401 25.6444 108.124 24.9188 108.128 24.1674C108.144 23.3165 108.266 22.4709 108.494 21.651C108.751 20.7291 109.021 19.7598 109.305 18.743C110.076 16.0317 110.472 14.1303 110.492 13.0391C110.511 12.6691 110.449 12.2995 110.31 11.9562C110.246 11.8289 110.144 11.7241 110.019 11.656C109.894 11.5879 109.751 11.5596 109.61 11.5749C109.001 11.5749 108.352 11.941 107.662 12.673C106.892 13.5185 106.237 14.462 105.714 15.4792C104.39 17.813 103.629 20.4243 103.492 23.1049L103.613 23.959C103.655 24.2622 103.676 24.568 103.674 24.874C103.659 25.2247 103.565 25.5675 103.399 25.8766C103.233 26.1856 102.999 26.4529 102.715 26.6585C102.122 27.18 101.359 27.4673 100.57 27.4667C100.352 27.4665 100.138 27.4011 99.9577 27.2789C99.777 27.1565 99.6367 26.983 99.555 26.7805C99.3163 26.2491 99.2019 25.6701 99.2201 25.0876C99.2608 24.1574 99.4141 23.2355 99.6767 22.3424C99.9811 21.1833 100.319 19.9529 100.691 18.6515C101.665 15.2149 102.162 12.6527 102.183 10.9649C102.214 10.2724 102.105 9.58071 101.863 8.93137C101.761 8.69441 101.587 8.49589 101.366 8.36435C101.144 8.23282 100.887 8.17504 100.63 8.19931C99.5347 8.19931 98.449 8.98221 97.3735 10.548C96.298 12.1138 95.3341 14.5439 94.4819 17.8382C94.2587 18.6922 94.0896 19.4344 93.9746 20.0648L93.9441 20.6444C94.2312 21.8477 94.4246 23.0714 94.5225 24.3047C94.5225 25.4841 94.1065 26.2772 93.2745 26.6839L92.1635 27.1923C91.8052 27.3557 91.4157 27.439 91.0221 27.4363C90.0074 27.4363 89.5001 26.4653 89.5001 24.5233C89.5001 22.5813 90.0244 18.7905 91.0728 13.1509C91.4583 11.1174 91.6511 9.97863 91.6511 9.7346C91.6511 8.08746 91.2351 7.26389 90.4031 7.26389C90.1253 7.26194 89.8539 7.34728 89.627 7.50792C89.3936 7.6706 89.1602 7.84006 88.9269 8.01629C88.6935 8.19253 88.4517 8.37893 88.2014 8.5755C87.9533 8.73943 87.6615 8.82448 87.3644 8.81953C87.0498 8.81953 86.8926 8.545 86.8926 7.99596C86.8938 7.44321 87.0374 6.90013 87.3093 6.41922C87.5812 5.93831 87.9724 5.53584 88.4449 5.25072C89.4996 4.49085 90.7736 4.09802 92.0722 4.13229C93.8985 4.13229 94.974 4.97959 95.2986 6.67418C95.3798 7.18255 95.4407 7.72143 95.4813 8.29082C96.9829 5.4778 98.8802 4.07129 101.173 4.07129C103.686 4.07129 105.112 5.27106 105.45 7.6706C105.575 8.40583 105.626 9.15182 105.602 9.89728V10.1413C106.921 8.31115 108.484 7.39608 110.29 7.39608C112.846 7.39608 114.125 8.94154 114.125 12.0325C114.093 13.6218 113.884 15.2026 113.501 16.7451C113.085 18.5448 112.78 19.8361 112.588 20.619C112.423 21.2111 112.326 21.8199 112.298 22.4339C112.298 23.2066 112.567 23.593 113.105 23.593C113.643 23.593 114.926 22.5355 116.956 20.4207C117.334 20.014 117.605 19.8106 117.767 19.8106Z" fill="#CCE8FA"/>
<path d="M74.4117 15.7588C74.919 15.7588 75.1828 16.2671 75.1828 17.2279C75.1568 18.3155 74.9262 19.3883 74.503 20.3901C74.0154 21.582 73.3292 22.6821 72.4738 23.6437C71.5048 24.7434 70.338 25.6505 69.0342 26.3178C67.5047 27.0878 65.8094 27.4685 64.0981 27.426C62.2586 27.448 60.4795 26.7683 59.1215 25.5247C57.6976 24.2537 56.9857 22.4218 56.9857 20.0291C56.9602 17.8186 57.3031 15.6193 58.0003 13.5219C58.6001 11.7078 59.4949 10.0056 60.6485 8.48388C61.6611 7.14238 62.9326 6.01862 64.3873 5.17943C65.5962 4.44352 66.976 4.03694 68.39 4C70.5849 4 71.6824 4.97947 71.6824 6.93842C71.7275 7.87814 71.5134 8.81216 71.0634 9.6379C70.6508 10.3157 70.2315 10.6546 69.8053 10.6546C69.5223 10.6545 69.2426 10.5942 68.9846 10.4777C68.7266 10.3611 68.4962 10.191 68.3088 9.97851C68.1316 9.77272 67.9151 9.6046 67.672 9.48411C67.4289 9.36361 67.1641 9.29317 66.8934 9.27695C66.3861 9.27695 64.9859 9.22103 63.8039 11.1274C63.3401 11.759 62.9962 12.4707 62.7893 13.227C62.0965 15.0087 61.7521 16.9072 61.7747 18.8192C61.9591 20.1966 62.6748 21.4468 63.7684 22.3016C64.4174 22.7532 65.2028 22.9652 65.9904 22.9014C67.3889 22.7461 68.6772 22.0669 69.5973 21.0001C70.2873 20.2579 70.8961 19.5563 71.5505 18.7988C72.2049 18.0414 72.7832 17.3449 73.2804 16.7043C73.7776 16.0638 74.153 15.7588 74.4117 15.7588Z" fill="#CCE8FA"/>
</svg>
